<svg width="44" height="43" viewBox="0 0 44 43" fill="none" xmlns="http://www.w3.org/2000/svg">
<path fill-rule="evenodd" clip-rule="evenodd" d="M22.8237 5.51424C22.3056 5.2593 21.6944 5.25916 21.1759 5.51386L1.00988 15.4223C-0.33452 16.0828 -0.337099 17.9575 1.00548 18.6215L9.16664 22.6583V30.4583C9.16664 34.4163 12.4499 37.625 16.5 37.625H27.5C31.55 37.625 34.8333 34.4163 34.8333 30.4583V22.6381L40.3333 19.9305V25.0833C40.3333 26.0729 41.1541 26.875 42.1666 26.875C43.1792 26.875 44 26.0729 44 25.0833V17.2536C44 16.4958 43.7055 15.786 42.9777 15.4279C36.2598 12.1234 29.5418 8.81879 22.8237 5.51424ZM21.9991 9.1202L5.90393 17.0284L21.9527 24.9667L38.077 17.0289L21.9991 9.1202ZM12.8333 30.4583V24.472L21.1229 28.5724C21.6423 28.8293 22.2555 28.8299 22.7755 28.5739L31.1666 24.4432V30.4583C31.1666 32.4374 29.5251 34.0417 27.5 34.0417H16.5C14.4749 34.0417 12.8333 32.4374 12.8333 30.4583Z" fill="black"/>
</svg>
