<svg width="41" height="32" viewBox="0 0 41 32" fill="none" xmlns="http://www.w3.org/2000/svg">
<g clip-path="url(#clip0_8_186)">
<path d="M0 16H5.125L20.5 2.304L35.875 16H41L23.083 0H17.958L0 16ZM5.125 32H15.375V22.016C15.375 21.4613 15.621 20.992 16.113 20.608C16.605 20.224 17.22 20.0213 17.958 20H23.083C23.7663 20 24.3677 20.2027 24.887 20.608C25.4063 21.0133 25.6523 21.4827 25.625 22.016V32H35.875V18.592L20.5 5.344L5.125 18.592V32ZM33.333 6.112L38.458 10.688V2.016H33.333V6.112Z" fill="black"/>
</g>
<defs>
<clipPath id="clip0_8_186">
<rect width="41" height="32" fill="white"/>
</clipPath>
</defs>
</svg>
